<svg id="visual" viewBox="0 0 960 540" width="960" height="540" xmlns="http://www.w3.org/2000/svg" xmlns:xlink="http://www.w3.org/1999/xlink" version="1.1"><rect x="0" y="0" width="960" height="540" fill="#191919"></rect><path d="M0 386L10.7 387.5C21.3 389 42.7 392 64 384.3C85.3 376.7 106.7 358.3 128 352.5C149.3 346.7 170.7 353.3 192 366.3C213.3 379.3 234.7 398.7 256 407.8C277.3 417 298.7 416 320 420C341.3 424 362.7 433 384 426.5C405.3 420 426.7 398 448 389.2C469.3 380.3 490.7 384.7 512 393.7C533.3 402.7 554.7 416.3 576 425.5C597.3 434.7 618.7 439.3 640 424C661.3 408.7 682.7 373.3 704 364.7C725.3 356 746.7 374 768 387.5C789.3 401 810.7 410 832 416.5C853.3 423 874.7 427 896 423.5C917.3 420 938.7 409 949.3 403.5L960 398L960 541L949.3 541C938.7 541 917.3 541 896 541C874.7 541 853.3 541 832 541C810.7 541 789.3 541 768 541C746.7 541 725.3 541 704 541C682.7 541 661.3 541 640 541C618.7 541 597.3 541 576 541C554.7 541 533.3 541 512 541C490.7 541 469.3 541 448 541C426.7 541 405.3 541 384 541C362.7 541 341.3 541 320 541C298.7 541 277.3 541 256 541C234.7 541 213.3 541 192 541C170.7 541 149.3 541 128 541C106.7 541 85.3 541 64 541C42.7 541 21.3 541 10.7 541L0 541Z" fill="#d70000"></path><path d="M0 404L10.7 401.8C21.3 399.7 42.7 395.3 64 396.2C85.3 397 106.7 403 128 408.8C149.3 414.7 170.7 420.3 192 426.7C213.3 433 234.7 440 256 443.3C277.3 446.7 298.7 446.3 320 436.3C341.3 426.3 362.7 406.7 384 398.7C405.3 390.7 426.7 394.3 448 404.7C469.3 415 490.7 432 512 442C533.3 452 554.7 455 576 456.3C597.3 457.7 618.7 457.3 640 446.5C661.3 435.7 682.7 414.3 704 404.7C725.3 395 746.7 397 768 400C789.3 403 810.7 407 832 413.5C853.3 420 874.7 429 896 433.3C917.3 437.7 938.7 437.3 949.3 437.2L960 437L960 541L949.3 541C938.7 541 917.3 541 896 541C874.7 541 853.3 541 832 541C810.7 541 789.3 541 768 541C746.7 541 725.3 541 704 541C682.7 541 661.3 541 640 541C618.7 541 597.3 541 576 541C554.7 541 533.3 541 512 541C490.7 541 469.3 541 448 541C426.7 541 405.3 541 384 541C362.7 541 341.3 541 320 541C298.7 541 277.3 541 256 541C234.7 541 213.3 541 192 541C170.7 541 149.3 541 128 541C106.7 541 85.3 541 64 541C42.7 541 21.3 541 10.7 541L0 541Z" fill="#c20002"></path><path d="M0 416L10.7 420.2C21.3 424.3 42.7 432.7 64 435.7C85.3 438.7 106.7 436.3 128 437.7C149.3 439 170.7 444 192 448.8C213.3 453.7 234.7 458.3 256 454.8C277.3 451.3 298.7 439.7 320 437.5C341.3 435.3 362.7 442.7 384 441.3C405.3 440 426.7 430 448 424.8C469.3 419.7 490.7 419.3 512 423.5C533.3 427.7 554.7 436.3 576 434.8C597.3 433.3 618.7 421.7 640 425.2C661.3 428.7 682.7 447.3 704 451C725.3 454.7 746.7 443.3 768 439.3C789.3 435.3 810.7 438.7 832 446.7C853.3 454.7 874.7 467.3 896 466.7C917.3 466 938.7 452 949.3 445L960 438L960 541L949.3 541C938.7 541 917.3 541 896 541C874.7 541 853.3 541 832 541C810.7 541 789.3 541 768 541C746.7 541 725.3 541 704 541C682.7 541 661.3 541 640 541C618.7 541 597.3 541 576 541C554.7 541 533.3 541 512 541C490.7 541 469.3 541 448 541C426.7 541 405.3 541 384 541C362.7 541 341.3 541 320 541C298.7 541 277.3 541 256 541C234.7 541 213.3 541 192 541C170.7 541 149.3 541 128 541C106.7 541 85.3 541 64 541C42.7 541 21.3 541 10.7 541L0 541Z" fill="#ae0004"></path><path d="M0 491L10.7 488.8C21.3 486.7 42.7 482.3 64 471.7C85.3 461 106.7 444 128 440.8C149.3 437.7 170.7 448.3 192 459.5C213.3 470.7 234.7 482.3 256 478.5C277.3 474.7 298.7 455.3 320 445.3C341.3 435.3 362.7 434.7 384 444.3C405.3 454 426.7 474 448 483C469.3 492 490.7 490 512 485.2C533.3 480.3 554.7 472.7 576 469C597.3 465.3 618.7 465.7 640 459C661.3 452.3 682.7 438.7 704 440.3C725.3 442 746.7 459 768 462.7C789.3 466.3 810.7 456.7 832 455C853.3 453.3 874.7 459.7 896 465.8C917.3 472 938.7 478 949.3 481L960 484L960 541L949.3 541C938.7 541 917.3 541 896 541C874.7 541 853.3 541 832 541C810.7 541 789.3 541 768 541C746.7 541 725.3 541 704 541C682.7 541 661.3 541 640 541C618.7 541 597.3 541 576 541C554.7 541 533.3 541 512 541C490.7 541 469.3 541 448 541C426.7 541 405.3 541 384 541C362.7 541 341.3 541 320 541C298.7 541 277.3 541 256 541C234.7 541 213.3 541 192 541C170.7 541 149.3 541 128 541C106.7 541 85.3 541 64 541C42.7 541 21.3 541 10.7 541L0 541Z" fill="#9a0004"></path><path d="M0 489L10.7 484.7C21.3 480.3 42.7 471.7 64 468.5C85.3 465.3 106.7 467.7 128 469C149.3 470.3 170.7 470.7 192 472.2C213.3 473.7 234.7 476.3 256 481.7C277.3 487 298.7 495 320 499.3C341.3 503.7 362.7 504.3 384 502.8C405.3 501.3 426.7 497.7 448 495.5C469.3 493.3 490.7 492.7 512 494.3C533.3 496 554.7 500 576 499.2C597.3 498.3 618.7 492.7 640 485.3C661.3 478 682.7 469 704 470C725.3 471 746.7 482 768 489.7C789.3 497.3 810.7 501.7 832 496.8C853.3 492 874.7 478 896 470C917.3 462 938.7 460 949.3 459L960 458L960 541L949.3 541C938.7 541 917.3 541 896 541C874.7 541 853.3 541 832 541C810.7 541 789.3 541 768 541C746.7 541 725.3 541 704 541C682.7 541 661.3 541 640 541C618.7 541 597.3 541 576 541C554.7 541 533.3 541 512 541C490.7 541 469.3 541 448 541C426.7 541 405.3 541 384 541C362.7 541 341.3 541 320 541C298.7 541 277.3 541 256 541C234.7 541 213.3 541 192 541C170.7 541 149.3 541 128 541C106.7 541 85.3 541 64 541C42.7 541 21.3 541 10.7 541L0 541Z" fill="#860003"></path><path d="M0 513L10.7 515.7C21.3 518.3 42.7 523.7 64 520.8C85.3 518 106.7 507 128 504.3C149.3 501.7 170.7 507.3 192 505.3C213.3 503.3 234.7 493.7 256 489.2C277.3 484.7 298.7 485.3 320 493.2C341.3 501 362.7 516 384 517C405.3 518 426.7 505 448 504.8C469.3 504.7 490.7 517.3 512 522.5C533.3 527.7 554.7 525.3 576 521.2C597.3 517 618.7 511 640 508.5C661.3 506 682.7 507 704 509.8C725.3 512.7 746.7 517.3 768 518.3C789.3 519.3 810.7 516.7 832 518.3C853.3 520 874.7 526 896 522C917.3 518 938.7 504 949.3 497L960 490L960 541L949.3 541C938.7 541 917.3 541 896 541C874.7 541 853.3 541 832 541C810.7 541 789.3 541 768 541C746.7 541 725.3 541 704 541C682.7 541 661.3 541 640 541C618.7 541 597.3 541 576 541C554.7 541 533.3 541 512 541C490.7 541 469.3 541 448 541C426.7 541 405.3 541 384 541C362.7 541 341.3 541 320 541C298.7 541 277.3 541 256 541C234.7 541 213.3 541 192 541C170.7 541 149.3 541 128 541C106.7 541 85.3 541 64 541C42.7 541 21.3 541 10.7 541L0 541Z" fill="#730000"></path></svg>