<svg id="visual" viewBox="0 0 960 540" width="960" height="540" xmlns="http://www.w3.org/2000/svg" xmlns:xlink="http://www.w3.org/1999/xlink" version="1.1"><rect x="0" y="0" width="960" height="540" fill="#191919"></rect><path d="M0 156L17.8 155C35.7 154 71.3 152 106.8 153.8C142.3 155.7 177.7 161.3 213.2 157.3C248.7 153.3 284.3 139.7 320 133C355.7 126.3 391.3 126.7 426.8 127.3C462.3 128 497.7 129 533.2 126C568.7 123 604.3 116 640 111.7C675.7 107.3 711.3 105.7 746.8 119C782.3 132.3 817.7 160.7 853.2 166.3C888.7 172 924.3 155 942.2 146.5L960 138L960 0L942.2 0C924.3 0 888.7 0 853.2 0C817.7 0 782.3 0 746.8 0C711.3 0 675.7 0 640 0C604.3 0 568.7 0 533.2 0C497.7 0 462.3 0 426.8 0C391.3 0 355.7 0 320 0C284.3 0 248.7 0 213.2 0C177.7 0 142.3 0 106.8 0C71.3 0 35.7 0 17.8 0L0 0Z" fill="#ff0000"></path><path d="M0 163L17.8 155.5C35.7 148 71.3 133 106.8 131.5C142.3 130 177.7 142 213.2 136.2C248.7 130.3 284.3 106.7 320 96C355.7 85.3 391.3 87.7 426.8 87.5C462.3 87.3 497.7 84.7 533.2 90C568.7 95.3 604.3 108.7 640 122.5C675.7 136.3 711.3 150.7 746.8 144.3C782.3 138 817.7 111 853.2 107.5C888.7 104 924.3 124 942.2 134L960 144L960 0L942.2 0C924.3 0 888.7 0 853.2 0C817.7 0 782.3 0 746.8 0C711.3 0 675.7 0 640 0C604.3 0 568.7 0 533.2 0C497.7 0 462.3 0 426.8 0C391.3 0 355.7 0 320 0C284.3 0 248.7 0 213.2 0C177.7 0 142.3 0 106.8 0C71.3 0 35.7 0 17.8 0L0 0Z" fill="#d60002"></path><path d="M0 63L17.8 61.2C35.7 59.3 71.3 55.7 106.8 58C142.3 60.3 177.7 68.7 213.2 71.7C248.7 74.7 284.3 72.3 320 78.8C355.7 85.3 391.3 100.7 426.8 96.7C462.3 92.7 497.7 69.3 533.2 68.5C568.7 67.7 604.3 89.3 640 95.7C675.7 102 711.3 93 746.8 94.2C782.3 95.3 817.7 106.7 853.2 103.2C888.7 99.7 924.3 81.3 942.2 72.2L960 63L960 0L942.2 0C924.3 0 888.7 0 853.2 0C817.7 0 782.3 0 746.8 0C711.3 0 675.7 0 640 0C604.3 0 568.7 0 533.2 0C497.7 0 462.3 0 426.8 0C391.3 0 355.7 0 320 0C284.3 0 248.7 0 213.2 0C177.7 0 142.3 0 106.8 0C71.3 0 35.7 0 17.8 0L0 0Z" fill="#ae0003"></path><path d="M0 50L17.8 51.3C35.7 52.7 71.3 55.3 106.8 47.5C142.3 39.7 177.7 21.3 213.2 17.3C248.7 13.3 284.3 23.7 320 30.2C355.7 36.7 391.3 39.3 426.8 43C462.3 46.7 497.7 51.3 533.2 52.2C568.7 53 604.3 50 640 52.8C675.7 55.7 711.3 64.3 746.8 66.7C782.3 69 817.7 65 853.2 54.2C888.7 43.3 924.3 25.7 942.2 16.8L960 8L960 0L942.2 0C924.3 0 888.7 0 853.2 0C817.7 0 782.3 0 746.8 0C711.3 0 675.7 0 640 0C604.3 0 568.7 0 533.2 0C497.7 0 462.3 0 426.8 0C391.3 0 355.7 0 320 0C284.3 0 248.7 0 213.2 0C177.7 0 142.3 0 106.8 0C71.3 0 35.7 0 17.8 0L0 0Z" fill="#880000"></path></svg>